# xmcd CD database file
#
# Track frame offsets:
#	150
#	13910
#	33960
#	49462
#	61505
#	71947
#	89762
#	103665
#	121482
#	143345
#	157465
#	174832
#	188855
#	205680
#	228337
#	244620
#	258325
#
# Disc length: 3672 seconds
#
# Revision: 0
# Processed by: cddbd v1.5.1PL2 Copyright (c) Steve Scherf et al.
# Submitted via: CDex 1.51
#
DISCID=ee0e5611
DTITLE=Various Artist - Un Pays qui se chante
DYEAR=2002
DGENRE=Québécois
TTITLE0=Jacques Michel  -  pas besoin de frapper pour entrer  (1972)
TTITLE1=Michel  Rivard and Sylvie Tremblay  -  à la claire fontaine   (1996)
TTITLE2=Gilles Vignault  -  Les gens de mon pays  (1971)
TTITLE3=Marie-Claire Séguin  -  l'hymne au printemps   (1995)
TTITLE4=Bertrand Gosselin  -  l'hiver Québécois   (1979)
TTITLE5=Claude Léveillé  -  Mon Pays   (1964)
TTITLE6=Jean-Pierre Ferland  -  à Sainte-Adèle P.Q"   (1969)
TTITLE7=Sylvain Lelièvre  -  les choses inutiles   (1999)
TTITLE8=Pierre Flynn  -  tout ce que j'ai , tout ce que j'aime  (1992)
TTITLE9=Marc Déry and Florent Volant -  Ninanu  (1999)
TTITLE10=Marie-Michèle Desrosiers  -  Le Labrador   (2000)
TTITLE11=Raymond Lévesque  -  quand les vivront d'amour   (1956)
TTITLE12=Richard Séguin  -  rester debout   (1995)
TTITLE13=Paul PIché  - voilà c'que nous voulons   (1993)
TTITLE14=Claude Gauthier  -  le plus beau voyage  (2002)
TTITLE15=Brault and Fréchette  -  la musique , on en prend bien soin   (1979)
TTITLE16=Félix Leclerc  -  l'an 1 (1978)
EXTD=YEAR: 2002
EXTT0=
EXTT1=
EXTT2=
EXTT3=
EXTT4=
EXTT5=
EXTT6=
EXTT7=
EXTT8=
EXTT9=
EXTT10=
EXTT11=
EXTT12=
EXTT13=
EXTT14=
EXTT15=
EXTT16=
PLAYORDER=
